HIERARCHY
ROOT Hips
{
	OFFSET 0.000000 83.208069 2.550922
	CHANNELS 6 Xposition Yposition Zposition Xrotation Yrotation Zrotation
	JOINT Pelvis
	{
		OFFSET 0.000000 0.000000 0.000000
		CHANNELS 3 Xrotation Yrotation Zrotation
		JOINT LeftUpLeg
		{
			OFFSET 8.479694 -4.795517 -0.379053
			CHANNELS 3 Xrotation Yrotation Zrotation
			JOINT LeftLeg
			{
				OFFSET 0.485052 -32.551468 0.112863
				CHANNELS 3 Xrotation Yrotation Zrotation
				JOINT LeftFoot
				{
					OFFSET 0.438033 -32.635670 -3.012641
					CHANNELS 3 Xrotation Yrotation Zrotation
					JOINT LeftToeBase
					{
						OFFSET 0.970169 -13.225353 11.864223
						CHANNELS 3 Xrotation Yrotation Zrotation
						End Site
						{
							OFFSET 0.000000 12.319231 0.000000
						}
					}
					JOINT LFootTongue
					{
						OFFSET 1.142399 -1.059789 6.665162
						CHANNELS 3 Xrotation Yrotation Zrotation
						End Site
						{
							OFFSET 0.000000 12.319230 0.000000
						}
					}
				}
				JOINT LeftPantLeg
				{
					OFFSET 1.152549 -16.519323 -2.284731
					CHANNELS 3 Xrotation Yrotation Zrotation
					End Site
					{
						OFFSET 0.000000 24.746851 0.000000
					}
				}
			}
		}
		JOINT RightUpLeg
		{
			OFFSET -8.479694 -4.795517 -0.379053
			CHANNELS 3 Xrotation Yrotation Zrotation
			JOINT RightLeg
			{
				OFFSET -0.484100 -32.551483 0.112903
				CHANNELS 3 Xrotation Yrotation Zrotation
				JOINT RightFoot
				{
					OFFSET -0.438985 -32.635651 -3.012681
					CHANNELS 3 Xrotation Yrotation Zrotation
					JOINT RightToeBase
					{
						OFFSET -0.970169 -13.225354 11.864223
						CHANNELS 3 Xrotation Yrotation Zrotation
						End Site
						{
							OFFSET 0.000000 12.319217 0.000000
						}
					}
					JOINT RFootTongue
					{
						OFFSET -1.142220 -1.059793 6.665161
						CHANNELS 3 Xrotation Yrotation Zrotation
						End Site
						{
							OFFSET 0.000000 12.319217 0.000000
						}
					}
				}
				JOINT RightPantLeg
				{
					OFFSET -1.153501 -16.519308 -2.284772
					CHANNELS 3 Xrotation Yrotation Zrotation
					End Site
					{
						OFFSET 0.000000 24.746878 0.000000
					}
				}
			}
		}
	}
	JOINT Spine
	{
		OFFSET 0.000000 7.722015 1.166203
		CHANNELS 3 Xrotation Yrotation Zrotation
		JOINT Spine1
		{
			OFFSET 0.000000 12.024086 0.248766
			CHANNELS 3 Xrotation Yrotation Zrotation
			JOINT Spine2
			{
				OFFSET -0.000000 11.503036 -0.491240
				CHANNELS 3 Xrotation Yrotation Zrotation
				JOINT Neck
				{
					OFFSET 0.000000 18.430687 -3.123054
					CHANNELS 3 Xrotation Yrotation Zrotation
					JOINT Head
					{
						OFFSET -0.000000 9.051071 1.034021
						CHANNELS 3 Xrotation Yrotation Zrotation
						JOINT HairB
						{
							OFFSET 0.208397 24.786072 24.822304
							CHANNELS 3 Xrotation Yrotation Zrotation
							End Site
							{
								OFFSET 0.000000 32.263794 0.000000
							}
						}
						JOINT HairA
						{
							OFFSET -7.081073 24.428299 23.196634
							CHANNELS 3 Xrotation Yrotation Zrotation
							End Site
							{
								OFFSET 0.000000 32.263779 0.000000
							}
						}
						JOINT Hat
						{
							OFFSET 16.728800 15.048309 -15.439650
							CHANNELS 3 Xrotation Yrotation Zrotation
							End Site
							{
								OFFSET 0.000000 32.263794 0.000000
							}
						}
					}
				}
				JOINT LeftShoulder
				{
					OFFSET 6.197824 13.665230 -4.064723
					CHANNELS 3 Xrotation Yrotation Zrotation
					JOINT LeftArm
					{
						OFFSET 7.778132 -0.187073 -1.709282
						CHANNELS 3 Xrotation Yrotation Zrotation
						JOINT LeftForeArm
						{
							OFFSET 21.954697 0.000000 -2.041093
							CHANNELS 3 Xrotation Yrotation Zrotation
							JOINT LeftHand
							{
								OFFSET 22.992908 0.000000 -0.870901
								CHANNELS 3 Xrotation Yrotation Zrotation
								JOINT LeftHandThumb1
								{
									OFFSET 3.593975 -1.460358 3.365570
									CHANNELS 3 Xrotation Yrotation Zrotation
									JOINT LeftHandThumb2
									{
										OFFSET 3.016712 -1.561966 2.119022
										CHANNELS 3 Xrotation Yrotation Zrotation
										JOINT LeftHandThumb3
										{
											OFFSET 3.029564 -2.099800 1.415844
											CHANNELS 3 Xrotation Yrotation Zrotation
											End Site
											{
												OFFSET 0.000000 3.948677 0.000000
											}
										}
									}
								}
								JOINT LeftHandIndex1
								{
									OFFSET 11.372505 0.065018 3.699154
									CHANNELS 3 Xrotation Yrotation Zrotation
									JOINT LeftHandIndex2
									{
										OFFSET 3.229195 -0.574921 -0.143498
										CHANNELS 3 Xrotation Yrotation Zrotation
										JOINT LeftHandIndex3
										{
											OFFSET 3.111160 -1.135635 -0.280794
											CHANNELS 3 Xrotation Yrotation Zrotation
											End Site
											{
												OFFSET 0.000000 3.323822 0.000000
											}
										}
									}
								}
								JOINT LeftHandMiddle1
								{
									OFFSET 11.327377 0.426697 -0.098180
									CHANNELS 3 Xrotation Yrotation Zrotation
									JOINT LeftHandMiddle2
									{
										OFFSET 3.290932 -0.875465 -0.186927
										CHANNELS 3 Xrotation Yrotation Zrotation
										JOINT LeftHandMiddle3
										{
											OFFSET 3.094551 -1.150223 -0.267588
											CHANNELS 3 Xrotation Yrotation Zrotation
											End Site
											{
												OFFSET 0.000000 3.312233 0.000000
											}
										}
									}
								}
								JOINT LeftHandRing1
								{
									OFFSET 11.497078 -0.008904 -3.070051
									CHANNELS 3 Xrotation Yrotation Zrotation
									JOINT LeftHandRing2
									{
										OFFSET 2.881340 -0.992859 -0.186928
										CHANNELS 3 Xrotation Yrotation Zrotation
										JOINT LeftHandRing3
										{
											OFFSET 3.022743 -1.281013 -0.290960
											CHANNELS 3 Xrotation Yrotation Zrotation
											End Site
											{
												OFFSET 0.000000 3.295853 0.000000
											}
										}
									}
								}
								JOINT LeftHandPinky1
								{
									OFFSET 10.529488 -1.373093 -5.625615
									CHANNELS 3 Xrotation Yrotation Zrotation
									JOINT LeftHandPinky2
									{
										OFFSET 2.679024 -0.950073 -0.330554
										CHANNELS 3 Xrotation Yrotation Zrotation
										JOINT LeftHandPinky3
										{
											OFFSET 2.724571 -0.843613 -0.252685
											CHANNELS 3 Xrotation Yrotation Zrotation
											End Site
											{
												OFFSET 0.000000 2.863358 0.000000
											}
										}
									}
								}
							}
							JOINT LSleeve
							{
								OFFSET 6.633202 -0.344879 -1.263650
								CHANNELS 3 Xrotation Yrotation Zrotation
								End Site
								{
									OFFSET 0.000000 14.885345 0.000000
								}
							}
						}
					}
				}
				JOINT RightShoulder
				{
					OFFSET -6.197824 13.665230 -4.064723
					CHANNELS 3 Xrotation Yrotation Zrotation
					JOINT RightArm
					{
						OFFSET -7.778132 -0.187073 -1.709282
						CHANNELS 3 Xrotation Yrotation Zrotation
						JOINT RightForeArm
						{
							OFFSET -21.954697 0.000000 -2.041093
							CHANNELS 3 Xrotation Yrotation Zrotation
							JOINT RightHand
							{
								OFFSET -22.992908 0.000000 -0.870901
								CHANNELS 3 Xrotation Yrotation Zrotation
								JOINT RightHandThumb1
								{
									OFFSET -3.593975 -1.460358 3.365570
									CHANNELS 3 Xrotation Yrotation Zrotation
									JOINT RightHandThumb2
									{
										OFFSET -3.016712 -1.561966 2.119022
										CHANNELS 3 Xrotation Yrotation Zrotation
										JOINT RightHandThumb3
										{
											OFFSET -3.029564 -2.099800 1.415844
											CHANNELS 3 Xrotation Yrotation Zrotation
											End Site
											{
												OFFSET 0.000000 3.948677 0.000000
											}
										}
									}
								}
								JOINT RightHandIndex1
								{
									OFFSET -11.372513 0.065018 3.699154
									CHANNELS 3 Xrotation Yrotation Zrotation
									JOINT RightHandIndex2
									{
										OFFSET -3.229187 -0.574921 -0.143498
										CHANNELS 3 Xrotation Yrotation Zrotation
										JOINT RightHandIndex3
										{
											OFFSET -3.111160 -1.135635 -0.280794
											CHANNELS 3 Xrotation Yrotation Zrotation
											End Site
											{
												OFFSET 0.000000 3.323822 0.000000
											}
										}
									}
								}
								JOINT RightHandMiddle1
								{
									OFFSET -11.327377 0.426697 -0.098180
									CHANNELS 3 Xrotation Yrotation Zrotation
									JOINT RightHandMiddle2
									{
										OFFSET -3.290932 -0.875465 -0.186927
										CHANNELS 3 Xrotation Yrotation Zrotation
										JOINT RightHandMiddle3
										{
											OFFSET -3.094551 -1.150223 -0.267588
											CHANNELS 3 Xrotation Yrotation Zrotation
											End Site
											{
												OFFSET 0.000000 3.312233 0.000000
											}
										}
									}
								}
								JOINT RightHandRing1
								{
									OFFSET -11.497078 -0.008904 -3.070051
									CHANNELS 3 Xrotation Yrotation Zrotation
									JOINT RightHandRing2
									{
										OFFSET -2.881340 -0.992859 -0.186928
										CHANNELS 3 Xrotation Yrotation Zrotation
										JOINT RightHandRing3
										{
											OFFSET -3.022743 -1.281013 -0.290960
											CHANNELS 3 Xrotation Yrotation Zrotation
											End Site
											{
												OFFSET 0.000000 3.295853 0.000000
											}
										}
									}
								}
								JOINT RightHandPinky1
								{
									OFFSET -10.529488 -1.373093 -5.625615
									CHANNELS 3 Xrotation Yrotation Zrotation
									JOINT RightHandPinky2
									{
										OFFSET -2.679024 -0.950073 -0.330554
										CHANNELS 3 Xrotation Yrotation Zrotation
										JOINT RightHandPinky3
										{
											OFFSET -2.724571 -0.843613 -0.252685
											CHANNELS 3 Xrotation Yrotation Zrotation
											End Site
											{
												OFFSET 0.000000 2.863358 0.000000
											}
										}
									}
								}
							}
							JOINT RSleeve
							{
								OFFSET -6.633202 -0.344879 -1.263650
								CHANNELS 3 Xrotation Yrotation Zrotation
								End Site
								{
									OFFSET 0.000000 14.885345 0.000000
								}
							}
						}
					}
				}
				JOINT Backpack
				{
					OFFSET -0.000000 -2.471489 36.677479
					CHANNELS 3 Xrotation Yrotation Zrotation
					End Site
					{
						OFFSET 0.000000 20.427322 0.000000
					}
				}
				JOINT Hood
				{
					OFFSET -0.000000 18.754143 -10.430963
					CHANNELS 3 Xrotation Yrotation Zrotation
					JOINT Hood1
					{
						OFFSET -0.000000 -5.011017 -7.685929
						CHANNELS 3 Xrotation Yrotation Zrotation
						End Site
						{
							OFFSET 0.000000 9.175171 0.000000
						}
					}
				}
				JOINT LHoodieString
				{
					OFFSET 5.250455 16.397728 3.089918
					CHANNELS 3 Xrotation Yrotation Zrotation
					JOINT LHoodieString1
					{
						OFFSET 0.257711 -6.364296 3.694587
						CHANNELS 3 Xrotation Yrotation Zrotation
						JOINT LHoodieString2
						{
							OFFSET 0.000000 -9.643806 2.679132
							CHANNELS 3 Xrotation Yrotation Zrotation
							End Site
							{
								OFFSET 0.000000 10.009033 0.000000
							}
						}
					}
				}
				JOINT RHoodieString
				{
					OFFSET -5.250455 16.397728 3.089918
					CHANNELS 3 Xrotation Yrotation Zrotation
					JOINT RHoodieString1
					{
						OFFSET -0.257711 -6.364296 3.694587
						CHANNELS 3 Xrotation Yrotation Zrotation
						JOINT RHoodieString2
						{
							OFFSET 0.000000 -9.643806 2.679132
							CHANNELS 3 Xrotation Yrotation Zrotation
							End Site
							{
								OFFSET 0.000000 10.009033 0.000000
							}
						}
					}
				}
			}
			JOINT LBackpack_Strap
			{
				OFFSET 15.223173 -7.719788 -6.610897
				CHANNELS 3 Xrotation Yrotation Zrotation
				End Site
				{
					OFFSET 0.000000 16.040596 0.000000
				}
			}
			JOINT RBackpack_Strap
			{
				OFFSET -15.223000 -7.719788 -6.610897
				CHANNELS 3 Xrotation Yrotation Zrotation
				End Site
				{
					OFFSET 0.000000 16.040596 0.000000
				}
			}
		}
	}
	JOINT BoyFacialAnim_Joint
	{
		OFFSET 1.000000 -82.208069 -1.550922
		CHANNELS 3 Xrotation Yrotation Zrotation
		End Site
		{
			OFFSET 0.000000 30.012787 0.000000
		}
	}
}
MOTION
Frames: 4
Frame Time: 0.016667
-2.057965 85.938332 7.831223 88.603516 9.761000 4.926230 -0.000000 -0.000000 0.000000 -15.036515 -14.458882 6.811887 22.948713 8.213369 -0.491626 18.192699 -7.199976 -17.470796 0.000001 -0.000000 0.000000 -0.000001 -0.000001 0.000000 0.000000 -0.000000 0.000000 -15.543945 -53.762031 -20.553648 11.572303 -0.457135 0.326197 17.750145 31.545369 19.212779 0.000001 0.000001 0.000002 0.000001 0.000001 0.000002 -0.000000 -0.000001 -0.000000 2.359117 6.334084 -3.214065 5.204486 12.461947 -7.272589 5.204476 12.461929 -7.272586 -13.925052 -2.201565 -7.202083 1.344851 -28.177998 -3.371385 0.000000 -0.000000 0.000001 0.000000 -0.000000 0.000001 0.000000 -0.000000 0.000001 -0.946194 7.997317 -0.528380 13.891672 -47.607873 11.119140 -27.917773 -113.041448 -16.186847 35.529220 27.263759 61.721243 -38.185381 -3.685521 -30.781887 -2.306635 1.829355 10.147235 0.000001 -0.000001 -0.000002 0.528795 -1.569116 -50.883933 -12.255044 -1.556354 -28.337815 0.000001 0.000000 0.000000 -5.587892 -4.003788 -53.935197 -10.508767 -2.354561 -34.764700 -0.000000 -0.000000 -0.000000 -4.307917 -0.452244 -43.874960 -11.300355 -3.991855 -57.854892 -0.000001 0.000000 0.000001 -5.353953 -6.396492 -59.685779 -6.557483 -7.733329 -38.038044 0.000002 0.000000 -0.000001 0.000001 -0.000001 -0.000000 3.795535 21.519199 -8.226346 -81.497735 27.695570 43.272462 -0.003264 21.758555 -0.003196 11.509303 -5.124694 8.351783 -32.459887 2.520903 20.890516 -3.940065 -1.254049 -7.069378 0.000001 -0.000001 -0.000001 4.518874 4.801033 -29.296191 -2.218523 3.950131 7.194527 -0.000000 -0.000001 0.000002 0.336839 -7.803385 -30.525061 -4.802070 4.124384 16.359854 0.000003 0.000003 0.000001 -5.601765 -20.027016 -24.079757 -4.184316 6.491389 17.694254 0.000003 0.000001 -0.000000 6.821851 -13.746790 4.417895 -4.290415 5.975555 20.213839 0.000001 -0.000002 -0.000003 -0.000000 0.000000 -0.000001 0.000000 0.000003 -0.000001 0.000000 0.000003 -0.000001 0.000000 0.000003 -0.000001 0.000000 0.000003 -0.000001 0.000000 0.000003 -0.000000 0.000000 0.000003 -0.000001 0.000000 0.000003 -0.000001 0.000000 0.000003 -0.000001 0.000001 0.000002 -0.000000 0.000000 -0.000003 0.000000 0.000000 -0.000003 0.000000 -0.000000 -0.000000 0.000000 
-2.060960 85.936073 7.777512 88.568060 9.835897 4.903812 -0.000000 0.000000 -0.000000 -14.925078 -14.384242 6.987275 22.720631 7.430014 -0.524657 18.000233 -6.923263 -18.102969 -0.000002 0.000000 0.000000 -0.000001 0.000000 0.000001 0.000000 0.000001 -0.000001 -15.522416 -53.885890 -20.554715 11.668785 -0.461677 0.330511 17.750731 31.503332 19.319146 0.000000 -0.000001 0.000002 0.000000 -0.000001 0.000001 0.000001 0.000002 0.000001 2.356440 6.346842 -3.207624 5.197626 12.488347 -7.248145 5.197633 12.488353 -7.248150 -13.955267 -2.219517 -7.151893 1.354288 -28.234293 -3.403387 0.000001 0.000001 0.000001 0.000001 0.000001 0.000001 0.000001 0.000001 0.000001 -0.954762 8.031870 -0.539128 13.964899 -47.845823 11.259528 -28.100257 -112.873534 -16.319887 35.503105 27.164496 61.661240 -38.269068 -3.834271 -30.819241 -2.341316 1.756441 10.169779 -0.000002 0.000001 -0.000000 0.453709 -1.580762 -50.686858 -12.239590 -1.557277 -28.270291 0.000001 0.000000 -0.000000 -5.610650 -3.975486 -53.694053 -10.511224 -2.354751 -34.775570 -0.000002 0.000000 -0.000000 -4.333139 -0.403891 -43.799958 -11.302329 -3.992124 -57.867801 0.000001 0.000000 0.000003 -5.385928 -6.361017 -59.410590 -6.551171 -7.728714 -38.002073 -0.000000 0.000000 0.000001 0.000000 0.000000 -0.000000 3.828876 21.676106 -8.271123 -81.483255 27.659056 43.437729 -0.003132 22.017239 -0.003386 11.258950 -5.078009 8.585366 -32.304141 2.324617 21.200279 -3.926524 -1.285215 -7.063552 0.000001 0.000000 0.000002 4.512105 4.670100 -29.459688 -2.207309 3.945061 7.086436 -0.000001 -0.000002 0.000000 0.338883 -7.843416 -30.621278 -4.805769 4.125624 16.377078 0.000001 0.000003 -0.000000 -5.554980 -19.905835 -23.758946 -4.193130 6.498726 17.737202 0.000004 0.000000 -0.000000 6.853509 -13.811315 4.518472 -4.291901 5.977745 20.222930 0.000001 0.000000 -0.000000 -0.000001 -0.000001 0.000002 0.000001 0.000001 -0.000001 0.000001 0.000001 -0.000001 0.000001 0.000001 -0.000001 0.000001 0.000001 -0.000001 0.000001 0.000001 -0.000001 0.000000 0.000001 -0.000000 0.000001 0.000001 -0.000001 0.000001 0.000001 -0.000001 0.000001 0.000001 -0.000001 -0.000000 -0.000001 0.000000 -0.000000 -0.000001 0.000000 -0.000000 0.000000 -0.000000 
-2.058871 85.934746 7.724964 88.517940 9.936341 4.868229 -0.000000 -0.000000 0.000000 -14.800955 -14.306834 7.171799 22.472087 6.648674 -0.556611 17.815517 -6.652717 -18.704429 -0.000001 0.000001 -0.000001 -0.000002 -0.000000 0.000000 0.000000 0.000000 0.000001 -15.444326 -53.937618 -20.500169 11.749447 -0.466246 0.333871 17.665758 31.458103 19.489953 -0.000000 -0.000001 0.000000 -0.000000 -0.000001 0.000000 0.000000 -0.000000 0.000000 2.355930 6.358641 -3.197123 5.194860 12.512802 -7.217784 5.194858 12.512797 -7.217785 -14.001813 -2.230695 -7.110234 1.358249 -28.274091 -3.435007 -0.000000 -0.000000 0.000001 -0.000000 -0.000000 0.000001 -0.000000 -0.000000 0.000001 -0.964031 8.078119 -0.554946 14.040118 -48.143835 11.398034 -28.328343 -112.689174 -16.498843 35.488457 27.057120 61.582864 -38.345003 -3.968572 -30.854307 -2.376940 1.681462 10.192917 -0.000000 -0.000001 0.000001 0.381030 -1.593979 -50.504201 -12.222470 -1.558274 -28.195632 0.000001 -0.000001 0.000000 -5.632975 -3.947670 -53.454683 -10.512114 -2.354803 -34.779562 0.000000 0.000000 0.000000 -4.358448 -0.355333 -43.718760 -11.303443 -3.992306 -57.875089 -0.000000 0.000000 -0.000000 -5.410295 -6.327744 -59.147799 -6.545851 -7.724795 -37.971730 0.000001 0.000001 0.000001 0.000000 -0.000000 -0.000000 3.867153 21.852222 -8.327410 -81.474799 27.623793 43.626587 -0.002955 22.292692 -0.003592 11.026132 -5.028554 8.831689 -32.156285 2.148537 21.476473 -3.912965 -1.316392 -7.057717 -0.000001 0.000001 0.000002 4.503749 4.554904 -29.597996 -2.188701 3.936051 6.950764 -0.000000 -0.000002 -0.000002 0.346242 -7.872523 -30.708309 -4.810921 4.127454 16.400114 0.000003 -0.000000 0.000002 -5.509171 -19.781920 -23.442819 -4.202436 6.506510 17.782679 -0.000001 0.000000 -0.000000 6.884483 -13.888446 4.601298 -4.289371 5.974420 20.207272 0.000001 0.000000 -0.000001 0.000003 0.000002 -0.000001 -0.000000 0.000002 0.000001 -0.000000 0.000002 0.000001 -0.000000 0.000002 0.000001 -0.000000 0.000002 0.000001 -0.000000 0.000002 0.000001 -0.000000 0.000002 0.000001 -0.000000 0.000002 0.000001 -0.000000 0.000002 0.000001 -0.000000 0.000002 0.000001 -0.000000 0.000000 0.000000 -0.000000 0.000000 0.000000 -0.000000 -0.000000 0.000000 
-2.052088 85.933746 7.673125 88.446449 10.061308 4.818944 -0.000000 0.000001 0.000000 -14.656613 -14.231723 7.368417 22.207663 5.866084 -0.587876 17.631664 -6.397628 -19.290783 0.000001 0.000001 -0.000000 -0.000001 -0.000000 0.000000 -0.000000 -0.000001 -0.000001 -15.289355 -53.912719 -20.381146 11.805317 -0.470927 0.335976 17.475386 31.399657 19.777520 0.000002 0.000000 0.000001 0.000002 0.000000 0.000001 0.000000 -0.000000 -0.000000 2.359465 6.368803 -3.181808 5.199917 12.533868 -7.180044 5.199921 12.533868 -7.180048 -14.056939 -2.234082 -7.075654 1.342326 -28.280458 -3.466635 -0.000001 0.000001 -0.000000 -0.000001 0.000001 -0.000000 -0.000001 0.000001 -0.000000 -0.973365 8.134287 -0.577434 14.102816 -48.498520 11.517784 -28.591326 -112.492171 -16.713177 35.492661 26.944575 61.480643 -38.403056 -4.067355 -30.885771 -2.411082 1.609397 10.215096 -0.000002 0.000000 0.000001 0.314815 -1.609801 -50.356785 -12.204734 -1.559325 -28.118309 -0.000002 0.000000 -0.000000 -5.648154 -3.921158 -53.225055 -10.509523 -2.354629 -34.768108 -0.000002 -0.000000 0.000000 -4.383896 -0.306612 -43.631047 -11.301559 -3.992034 -57.862624 -0.000001 -0.000000 -0.000000 -5.431505 -6.300444 -58.925736 -6.541192 -7.721402 -37.945212 0.000001 0.000000 0.000001 0.000000 -0.000002 -0.000000 3.911029 22.045293 -8.396944 -81.496752 27.567617 43.824642 -0.002800 22.567727 -0.003848 10.818562 -4.994006 9.049447 -32.029011 2.043549 21.604747 -3.899446 -1.347565 -7.051866 0.000001 -0.000000 -0.000002 4.479589 4.434457 -29.697249 -2.155135 3.919102 6.759295 0.000002 0.000005 0.000000 0.356947 -7.907219 -30.859273 -4.817244 4.129683 16.427677 0.000002 0.000000 -0.000001 -5.484585 -19.721128 -23.195017 -4.211497 6.514058 17.826901 0.000004 0.000001 0.000001 6.904835 -13.960925 4.641741 -4.279079 5.960434 20.143942 0.000000 0.000004 0.000002 -0.000000 -0.000001 -0.000003 0.000001 -0.000001 0.000001 0.000001 -0.000001 0.000001 0.000001 -0.000001 0.000001 0.000001 -0.000001 0.000001 0.000001 -0.000001 0.000002 0.000000 -0.000001 0.000001 0.000001 -0.000001 0.000001 0.000001 -0.000001 0.000001 0.000001 -0.000001 0.000001 0.000000 -0.000001 0.000000 0.000000 -0.000001 0.000000 -0.000000 0.000001 0.000000 
